<?xml version="1.0" encoding="iso-8859-1"?>
<!-- Generator: Adobe Illustrator 19.0.0, SVG Export Plug-In . SVG Version: 6.00 Build 0)  -->
<svg version="1.1" id="Capa_1" xmlns="http://www.w3.org/2000/svg" xmlns:xlink="http://www.w3.org/1999/xlink" x="0px" y="0px"
	 viewBox="0 0 512 512" style="enable-background:new 0 0 512 512;" xml:space="preserve">
<path style="fill:#48AEF9;" d="M435.916,485.92c-5.94-29.832-12.925-64.913-14.647-73.559
	c-4.407-22.074-20.625-31.049-29.559-34.382c-0.108-0.032-6.118-1.805-6.01-1.773l0,0c-0.689-0.203-59.458-17.731-62.583-18.653l0,0
	h-133.95l0,0l0,0l0,0c-3.672,1.083-61.977,18.42-62.767,18.653l0,0c-2.109,0.622-6.276,1.851-6.01,1.773
	c-8.934,3.333-25.152,12.308-29.559,34.382c0,0-8.891,44.787-14.762,74.347C73.468,499.8,83.487,512,96.835,512h317.679
	C428.277,512,438.604,499.418,435.916,485.92z"/>
<path style="fill:#3997EE;" d="M103.881,486.707c5.872-29.56,14.762-83.618,14.762-83.618c3.479-17.424,14.315-26.682,23.121-31.451
	c-20.012,5.949-21.479,6.371-21.373,6.34c-8.934,3.333-25.152,12.308-29.559,34.382c0,0-8.891,44.787-14.762,74.347
	C73.468,499.8,83.487,512,96.835,512h27.812C111.298,512,101.28,499.8,103.881,486.707z"/>
<path style="fill:#EDB87E;" d="M260.646,323.748c-16.465,0.773-32.102-2.662-45.975-9.325c0,8.866,0,22.406,0,31.261l0,0
	l16.737,37.534l6.422,15.196c25.389,0.109,10.916,0.047,36.305,0.155l22.94-53.009v-30.779
	C285.914,319.989,273.61,323.139,260.646,323.748z"/>
<path style="fill:#E4A970;" d="M265.642,398.414l-6.423-15.196l-13.199-29.599c-2.333-5.231-3.538-10.895-3.538-16.623v-14.109
	c-9.806-1.405-19.153-4.306-27.812-8.465v31.261l16.737,37.534l6.423,15.196c21.875,0.094,14.18,0.061,27.863,0.119L265.642,398.414
	z"/>
<path style="fill:#647892;" d="M247.315,0.287c-74.19,4.684-131.53,67.137-131.53,141.474c0,11.23,0,33.314,0,43.708h281.208
	c0-9.4,0-35.002,0-44.866C396.992,60.071,328.935-4.866,247.315,0.287z"/>
<path style="fill:#4D6682;" d="M189.263,141.761c0-64.776,43.541-120.522,103.828-136.891c-14.475-3.918-29.866-5.588-45.776-4.583
	c-74.19,4.684-131.53,67.137-131.53,141.474c0,11.23,0,33.314,0,43.708h73.478v-30.534V141.761z"/>
<g>
	<path style="fill:#3997EE;" d="M158.532,468.737c0-4.267-3.459-7.725-7.725-7.725s-7.725,3.458-7.725,7.725V512h15.451
		L158.532,468.737L158.532,468.737z"/>
	<path style="fill:#3997EE;" d="M369.696,512v-43.263c0-4.267-3.459-7.725-7.725-7.725s-7.725,3.458-7.725,7.725V512H369.696z"/>
</g>
<polygon style="fill:#FAC149;" points="274.574,395.603 237.814,395.603 232.839,399.273 242.059,426.505 270.259,426.505 
	279.524,399.274 "/>
<path style="fill:#F8A748;" d="M264.451,395.603h-26.637l-4.975,3.67l9.22,27.232h28.199l-8.8-21.376
	C260.278,401.641,261.488,397.789,264.451,395.603L264.451,395.603z"/>
<path style="fill:#F4C48B;" d="M350.548,155.759l-33.369-25.982c-5.63-4.383-12.204-5.23-18.026-2.969l0,0
	c-22.707,8.778-82.499,30.037-133.487,32.06l0.007,0.014c0,0-7.654,0.468-7.654,6.532v61.78c0,56.372,46.723,102.289,103.034,99.662
	c52.162-2.434,93.708-45.49,93.708-98.263v-61.976C354.76,159.529,350.549,155.76,350.548,155.759z"/>
<path style="fill:#EDB87E;" d="M185.958,228.594v-61.976c0-5.012,2.1-8.356,3.334-9.89c-7.971,1.08-15.901,1.834-23.627,2.14
	l0.007,0.014c0,0-7.654,0.468-7.654,6.532v61.78c0,56.372,46.723,102.289,103.034,99.662c3.144-0.147,6.248-0.444,9.307-0.879
	C222.648,319.194,185.958,278.186,185.958,228.594z"/>
<polygon style="fill:#FAC149;" points="281.431,512 270.259,426.505 256.271,426.505 242.283,426.505 231.111,512 "/>
<polygon style="fill:#F8A748;" points="270.259,426.505 256.271,426.505 242.283,426.505 231.111,512 259.103,512 270.267,426.57 
	"/>
<g>
	<path style="fill:#3997EE;" d="M297.076,340.221l-22.712,55.382l19.045,14.014c4.379,3.247,10.65,1.342,12.482-3.792l17.226-48.273
		L297.076,340.221z"/>
	<path style="fill:#3997EE;" d="M214.671,340.221l23.25,55.382l-19.045,14.014c-4.379,3.247-10.65,1.342-12.482-3.792
		l-17.226-48.273L214.671,340.221z"/>
</g>
<g>
	<path style="fill:#EFEFEF;" d="M256.169,301.357h-55.293c-34.163,0-64.134-22.524-64.134-57.391v-15.832
		c0-4.267,3.459-7.725,7.725-7.725s7.725,3.458,7.725,7.725v15.832c0,25.866,22.699,41.94,48.683,41.94h55.293
		c4.267,0,7.725,3.458,7.725,7.725S260.436,301.357,256.169,301.357z"/>
	<path style="fill:#EFEFEF;" d="M369.245,170.539c-4.267,0-7.725-3.458-7.725-7.725v-21.006c0-58.75-47.707-106.892-106.434-105.863
		c-56.375,0.999-102.669,47.069-102.669,104.534v22.334c0,4.267-3.459,7.725-7.725,7.725c-4.267,0-7.725-3.458-7.725-7.725v-22.334
		c0-64.898,52.049-118.817,117.846-119.983c67.41-1.15,122.159,53.915,122.159,121.312v21.006
		C376.97,167.08,373.512,170.539,369.245,170.539z"/>
</g>
<path style="fill:#FAC149;" d="M382.557,168.221v65.927c13.027-5.316,22.207-18.068,22.207-32.964
	C404.764,186.289,395.584,173.537,382.557,168.221z"/>
<path style="fill:#F8A748;" d="M382.557,197.838v36.31c13.027-5.316,22.207-18.068,22.207-32.964c0-6.635-1.83-12.838-5.002-18.155
	C395.814,189.649,389.782,194.89,382.557,197.838z"/>
<path style="fill:#FAC149;" d="M130.431,168.221v65.927C100.801,222.101,100.734,180.295,130.431,168.221z"/>
<path style="fill:#F8A748;" d="M113.936,181.812c-12.186,18.597-4.431,43.828,16.495,52.336v-38.697
	C123.626,192.674,117.888,187.871,113.936,181.812z"/>
<path style="fill:#3997EE;" d="M246.891,307.022h18.616c7.512,0,13.997-5.772,14.328-13.277c0.351-7.966-6.003-14.535-13.892-14.535
	h-19.489c-7.889,0-14.243,6.569-13.892,14.535C232.893,301.25,239.378,307.022,246.891,307.022z"/>
<path style="fill:#1E88D8;" d="M256.213,293.745c-0.32-7.25,4.921-13.325,11.811-14.362c-0.681-0.102-1.372-0.173-2.081-0.173
	h-19.488c-7.889,0-14.243,6.568-13.892,14.535c0.331,7.505,6.816,13.277,14.328,13.277h18.616c0.856,0,1.695-0.084,2.517-0.228
	C261.634,305.676,256.506,300.395,256.213,293.745z"/>
<path style="fill:#F8A748;" d="M130.334,234.143v-65.917c0-7.512,5.772-13.997,13.277-14.328
	c7.966-0.351,14.535,6.003,14.535,13.892v66.789c0,7.889-6.568,14.243-14.535,13.892
	C136.106,248.14,130.334,241.655,130.334,234.143z"/>
<path style="fill:#F38D1A;" d="M143.611,207.783c-7.505-0.33-13.277-6.816-13.277-14.328v40.688c0,7.512,5.772,13.998,13.277,14.328
	c7.966,0.351,14.535-6.003,14.535-13.892v-40.688C158.146,201.78,151.578,208.134,143.611,207.783z"/>
<path style="fill:#F8A748;" d="M354.802,234.143v-65.917c0-7.512,5.777-13.997,13.288-14.328
	c7.973-0.351,14.546,6.003,14.546,13.892v66.788c0,7.889-6.574,14.243-14.546,13.892
	C360.579,248.14,354.802,241.655,354.802,234.143z"/>
<path style="fill:#F38D1A;" d="M368.09,207.783c-7.511-0.331-13.288-6.816-13.288-14.328v40.688c0,7.512,5.777,13.998,13.288,14.328
	c7.973,0.351,14.546-6.003,14.546-13.892v-40.688C382.636,201.78,376.062,208.134,368.09,207.783z"/>
<g>
</g>
<g>
</g>
<g>
</g>
<g>
</g>
<g>
</g>
<g>
</g>
<g>
</g>
<g>
</g>
<g>
</g>
<g>
</g>
<g>
</g>
<g>
</g>
<g>
</g>
<g>
</g>
<g>
</g>
</svg>
