<svg height="512" viewBox="0 0 64 64" width="512" xmlns="http://www.w3.org/2000/svg"><g id="flat"><path d="m5 4h54a2 2 0 0 1 2 2v43a3 3 0 0 1 -3 3h-52a3 3 0 0 1 -3-3v-43a2 2 0 0 1 2-2z" fill="#394d5c"/><path d="m7 8h50v40h-50z" fill="#f4f4e6"/><rect fill="#394d5c" height="4" rx="2" width="18" x="23" y="56"/><path d="m30 52h4v4h-4z" fill="#143441"/><path d="m11 38h4v10h-4z" fill="#ffd782"/><path d="m13 32h2a0 0 0 0 1 0 0v6a0 0 0 0 1 0 0h-4a0 0 0 0 1 0 0v-4a2 2 0 0 1 2-2z" fill="#195c85"/><path d="m15 14h14v18h-14z" fill="#ffd782" transform="matrix(-1 0 0 -1 44 46)"/><path d="m15 32h14v16h-14z" fill="#5f79ba" transform="matrix(-1 0 0 -1 44 80)"/><path d="m29 32h4a0 0 0 0 1 0 0v6a0 0 0 0 1 0 0h-2a2 2 0 0 1 -2-2v-4a0 0 0 0 1 0 0z" fill="#195c85" transform="matrix(-1 0 0 -1 62 70)"/><path d="m22 32a2 2 0 0 1 2 2v2a0 0 0 0 1 0 0h-4a0 0 0 0 1 0 0v-2a2 2 0 0 1 2-2z" fill="#f9bb4b" transform="matrix(-1 0 0 -1 44 68)"/><path d="m37.948 38.316-2.174.199 4.278-12.831 1.896.632z" fill="#ad6327"/><path d="m25 22h4v4h-4z" fill="#96c3f0"/><path d="m19 23h6v2h-6z" fill="#143441"/><path d="m21 36h2v5h-2z" fill="#4a6396"/><path d="m15 44h14v4h-14z" fill="#195c85"/><g fill="#2d75bb"><path d="m36 13h16v2h-16z"/><path d="m36 17h6v2h-6z"/><path d="m36 21h6v2h-6z"/></g><path d="m49 27a5 5 0 1 1 5-5 5.006 5.006 0 0 1 -5 5zm0-8a3 3 0 1 0 3 3 3 3 0 0 0 -3-3z" fill="#e33e5c"/><path d="m43 40h14v8h-14z" fill="#ffd782"/><path d="m46 43h8v2h-8z" fill="#e4544f"/><path d="m15 14v4 10h4v-10h10v-4z" fill="#394d5c"/><path d="m29 38h10v4h-10z" fill="#ffd782"/></g></svg>