<svg id="Layer_1" enable-background="new 0 0 512 512" height="512" viewBox="0 0 512 512" width="512" xmlns="http://www.w3.org/2000/svg"><g><g><path d="m460.77 173.185v165.22c0 27.96-22.76 50.71-50.74 50.71h-307.58c-27.98 0-50.73-22.75-50.73-50.71v-165.22c0-27.96 22.75-50.71 50.73-50.71h307.58c27.98-.001 50.74 22.749 50.74 50.71z" fill="#d9f0f4"/><path d="m460.77 173.185v165.22c0 27.96-22.76 50.71-50.74 50.71h-20c27.98 0 50.74-22.75 50.74-50.71v-165.22c0-27.96-22.76-50.71-50.74-50.71h20c27.98-.001 50.74 22.749 50.74 50.71z" fill="#bae1e5"/></g><path d="m431.33 176.025v159.95c0 5.73-2.04 10.99-5.44 15.1-4.35 5.27-10.93 8.64-18.29 8.64h-302.87c-7.12 0-13.52-3.15-17.86-8.14-3.65-4.18-5.86-9.64-5.86-15.6v-159.95c0-5.46 1.85-10.49 4.96-14.5 4.33-5.62 11.13-9.24 18.76-9.24h302.87c7.64 0 14.45 3.63 18.78 9.26 3.11 4.01 4.95 9.03 4.95 14.48z" fill="#fbdf63"/><path d="m431.33 176.025v159.95c0 5.73-2.04 10.99-5.44 15.1-4.35 5.27-10.93 8.64-18.29 8.64h-20c13.08 0 23.72-10.65 23.72-23.75v-159.94c0-12.96-10.42-23.53-23.31-23.74h19.59c7.64 0 14.45 3.63 18.78 9.26 3.11 4.01 4.95 9.03 4.95 14.48z" fill="#ffa402"/><path d="m425.89 351.075c-4.35 5.27-10.93 8.64-18.29 8.64h-302.87c-7.12 0-13.52-3.15-17.86-8.14l105.38-123.76h128.68l90.39 106.15z" fill="#ffa402"/><path d="m426.38 161.545-15.42 10.35-138.12 92.73c-4.95 3.33-10.63 4.99-16.32 4.99-5.66 0-11.32-1.65-16.27-4.96l-154.28-103.13c4.33-5.62 11.13-9.24 18.76-9.24h302.87c7.64 0 14.45 3.63 18.78 9.26z" fill="#ff6b81"/><g><g><g><path d="m293.186 479.66c0 17.83-14.48 32.34-32.277 32.34h-228.632c-17.797 0-32.277-14.51-32.277-32.34s14.48-32.33 32.277-32.33h2.808l16.868-23.3c1.409-1.95 3.667-3.11 6.066-3.11 2.408 0 4.667 1.16 6.076 3.11l16.868 23.3h179.946c17.797.001 32.277 14.501 32.277 32.33z" fill="#ff6b81"/><path d="m293.186 479.66c0 17.83-14.48 32.34-32.277 32.34h-19.986c17.797 0 32.277-14.51 32.277-32.34s-14.48-32.33-32.277-32.33h19.986c17.797.001 32.277 14.501 32.277 32.33z" fill="#ed2061"/></g><g><path d="m512 32.34c0 17.83-14.48 32.33-32.277 32.33h-19.986l-16.868 23.3c-1.409 1.95-3.667 3.11-6.066 3.11-2.408 0-4.667-1.16-6.076-3.11l-16.858-23.3h-103.203c-17.797 0-32.277-14.5-32.277-32.33s14.48-32.34 32.277-32.34h169.057c17.797 0 32.277 14.51 32.277 32.34z" fill="#fbdf63"/><path d="m512 32.34c0 17.83-14.48 32.33-32.277 32.33h-19.986c17.797 0 32.277-14.5 32.277-32.33s-14.48-32.34-32.277-32.34h19.986c17.797 0 32.277 14.51 32.277 32.34z" fill="#ffa402"/></g></g><g fill="#90abbd"><path d="m471.879 429.572c0-4.143-3.358-7.5-7.502-7.5h-112.196c-4.144 0-7.502 3.357-7.502 7.5s3.358 7.5 7.502 7.5h112.196c4.144 0 7.502-3.357 7.502-7.5z"/><path d="m464.377 457.072h-51.135c-4.144 0-7.502 3.357-7.502 7.5s3.358 7.5 7.502 7.5h51.135c4.144 0 7.502-3.357 7.502-7.5s-3.358-7.5-7.502-7.5z"/><path d="m146.754 74.86h-98.446c-4.144 0-7.502 3.357-7.502 7.5s3.358 7.5 7.502 7.5h98.445c4.144 0 7.502-3.357 7.502-7.5s-3.358-7.5-7.501-7.5z"/><path d="m48.308 54.86h52.135c4.144 0 7.502-3.357 7.502-7.5s-3.358-7.5-7.502-7.5h-52.135c-4.144 0-7.502 3.357-7.502 7.5s3.359 7.5 7.502 7.5z"/></g></g><path d="m426.38 161.545-15.42 10.35c-1.93-11.01-11.46-19.42-22.95-19.61h19.59c7.64 0 14.45 3.63 18.78 9.26z" fill="#ed2061"/><path d="m425.89 351.075c-4.35 5.27-10.93 8.64-18.29 8.64h-20c13.08 0 23.72-10.65 23.72-23.75v-2z" fill="#ff7b03"/></g></svg>