<svg id="Capa_1" enable-background="new 0 0 512 512" height="512" viewBox="0 0 512 512" width="512" xmlns="http://www.w3.org/2000/svg"><g><g><g><g><path d="m354.492 464.383h-333.275c-6.482 0-11.737-5.255-11.737-11.737v-321.735h356.75v321.735c0 6.482-5.255 11.737-11.738 11.737z" fill="#c4e2ff"/><path d="m366.23 140.298h-356.189v-30.775c0-6.482 5.255-11.737 11.737-11.737h332.714c6.482 0 11.737 5.255 11.737 11.737v30.775z" fill="#60b7ff"/><path d="m366.228 140.295v312.347c0 6.488-5.249 11.737-11.737 11.737h-20.069c6.478 0 11.737-5.249 11.737-11.737v-312.347z" fill="#a5d5f9"/><path d="m366.228 109.527v30.768h-20.069v-30.768c0-6.488-5.259-11.737-11.737-11.737h20.069c6.488 0 11.737 5.249 11.737 11.737z" fill="#26a6fe"/><path d="m73.727 140.298h-64.248v-30.775c0-6.482 5.255-11.737 11.737-11.737h52.51v42.512z" fill="#e94444"/><path d="m54.788 97.79h18.941v42.505h-18.941z" fill="#d83131"/></g><g><g><path d="m113.404 191.419h-58.617c-4.204 0-7.612-3.408-7.612-7.612s3.408-7.612 7.612-7.612h58.618c4.204 0 7.612 3.408 7.612 7.612s-3.408 7.612-7.613 7.612z" fill="#96cced"/></g><g><path d="m113.404 225.286h-58.617c-4.204 0-7.612-3.408-7.612-7.612s3.408-7.612 7.612-7.612h58.618c4.204 0 7.612 3.408 7.612 7.612s-3.408 7.612-7.613 7.612z" fill="#96cced"/></g><g><path d="m113.404 259.152h-58.617c-4.204 0-7.612-3.408-7.612-7.612s3.408-7.612 7.612-7.612h58.618c4.204 0 7.612 3.408 7.612 7.612s-3.408 7.612-7.613 7.612z" fill="#96cced"/></g><g><path d="m113.404 293.019h-58.617c-4.204 0-7.612-3.408-7.612-7.612s3.408-7.612 7.612-7.612h58.618c4.204 0 7.612 3.408 7.612 7.612-.001 4.204-3.408 7.612-7.613 7.612z" fill="#96cced"/></g><g><path d="m113.404 326.886h-58.617c-4.204 0-7.612-3.408-7.612-7.612s3.408-7.612 7.612-7.612h58.618c4.204 0 7.612 3.408 7.612 7.612-.001 4.205-3.408 7.612-7.613 7.612z" fill="#96cced"/></g><g><path d="m113.404 360.752h-58.617c-4.204 0-7.612-3.408-7.612-7.612s3.408-7.612 7.612-7.612h58.618c4.204 0 7.612 3.408 7.612 7.612-.001 4.205-3.408 7.612-7.613 7.612z" fill="#96cced"/></g><g><path d="m113.404 394.619h-58.617c-4.204 0-7.612-3.408-7.612-7.612s3.408-7.612 7.612-7.612h58.618c4.204 0 7.612 3.408 7.612 7.612-.001 4.205-3.408 7.612-7.613 7.612z" fill="#96cced"/></g><g><path d="m113.404 428.486h-58.617c-4.204 0-7.612-3.408-7.612-7.612s3.408-7.612 7.612-7.612h58.618c4.204 0 7.612 3.408 7.612 7.612-.001 4.205-3.408 7.612-7.613 7.612z" fill="#96cced"/></g></g></g><g><path d="m490.783 512h-333.275c-6.482 0-11.737-5.255-11.737-11.737v-294.248h356.75v294.247c0 6.483-5.255 11.738-11.738 11.738z" fill="#eaf6ff"/><path d="m502.521 216.987h-356.189v-30.775c0-6.482 5.255-11.737 11.737-11.737h332.714c6.482 0 11.737 5.255 11.737 11.737v30.775z" fill="#60b7ff"/><path d="m502.519 216.984v283.275c0 6.488-5.249 11.737-11.737 11.737h-20.069c6.478 0 11.737-5.249 11.737-11.737v-283.275z" fill="#d8ecfe"/><path d="m502.519 186.216v30.768h-20.069v-30.768c0-6.488-5.259-11.737-11.737-11.737h20.069c6.488 0 11.737 5.249 11.737 11.737z" fill="#26a6fe"/><path d="m210.018 216.987h-64.248v-30.775c0-6.482 5.255-11.737 11.737-11.737h52.51v42.512z" fill="#e94444"/><path d="m191.079 174.479h18.941v42.505h-18.941z" fill="#d83131"/><g fill="#f4d902"><path d="m239.848 308.943c-3.726 0-7.311 1.421-10.024 3.974l-44.5 41.86c-5.6 5.267-5.6 14.165 0 19.432l44.5 41.86c2.714 2.553 6.299 3.974 10.024 3.974 13.198 0 19.649-16.098 10.103-25.212l-29.124-27.807c-1.444-1.379-1.444-3.684 0-5.062l29.124-27.807c9.546-9.114 3.095-25.212-10.103-25.212z"/><path d="m408.443 308.943c3.726 0 7.311 1.421 10.024 3.974l44.5 41.86c5.6 5.267 5.6 14.165 0 19.432l-44.5 41.86c-2.714 2.553-6.299 3.974-10.024 3.974-13.198 0-19.649-16.098-10.103-25.212l29.124-27.807c1.444-1.379 1.444-3.684 0-5.062l-29.124-27.807c-9.546-9.114-3.095-25.212 10.103-25.212z"/><path d="m300.624 417.742c-11.394 0-18.949-11.812-14.171-22.156l45.136-77.579c2.553-5.525 8.084-9.063 14.171-9.063 11.394 0 18.949 11.812 14.171 22.156l-45.136 77.579c-2.553 5.525-8.084 9.063-14.171 9.063z"/></g><g fill="#e3ca00"><path d="m254.508 405.31c0 7.51-5.815 14.737-14.655 14.737-3.735 0-7.318-1.421-10.028-3.979l-1.177-1.106c2.253-2.679 3.532-6.14 3.532-9.652 0-3.705-1.411-7.47-4.557-10.474l-29.128-27.809c-1.441-1.38-1.441-3.684 0-5.064l29.128-27.809c6.15-5.866 5.663-14.625 1.025-20.126l1.177-1.106c2.71-2.557 6.292-3.978 10.028-3.978 13.194 0 19.649 16.097 10.098 25.211l-29.128 27.809c-1.441 1.38-1.441 3.684 0 5.064l29.128 27.809c3.146 3.003 4.557 6.768 4.557 10.473z"/><path d="m462.963 374.212-44.494 41.855c-2.72 2.558-6.303 3.979-10.028 3.979-4.699 0-8.546-2.04-11.124-5.085l43.317-40.749c5.602-5.267 5.602-14.168 0-19.436l-43.317-40.749c2.578-3.045 6.425-5.085 11.124-5.085 3.725 0 7.308 1.421 10.028 3.978l44.494 41.856c5.602 5.268 5.602 14.169 0 19.436z"/><path d="m361.39 324.552c0 2.162-.467 4.385-1.462 6.546l-45.134 77.581c-2.547 5.521-8.079 9.063-14.168 9.063-3.167 0-6.029-.914-8.414-2.446 2.466-1.583 4.486-3.857 5.765-6.617l45.134-77.581c.995-2.162 1.461-4.385 1.461-6.546 0-5.328-2.791-10.322-7.216-13.163 2.466-1.563 5.359-2.446 8.404-2.446 9.012-.001 15.63 7.398 15.63 15.609z"/></g></g></g><g><g><path d="m52.794 44.826c-4.204 0-7.612-3.408-7.612-7.612v-22.882c0-7.903 6.43-14.332 14.332-14.332h95.289c4.204 0 7.612 3.408 7.612 7.612s-3.408 7.612-7.612 7.612h-94.397v21.99c0 4.205-3.407 7.612-7.612 7.612z" fill="#333"/></g><g><path d="m370.865 57.302h-16.622c-4.204 0-7.612-3.408-7.612-7.612s3.408-7.612 7.612-7.612h16.622c4.204 0 7.612 3.408 7.612 7.612s-3.408 7.612-7.612 7.612z" fill="#333"/></g><path d="m54.788 37.215v24.952h-32.833c-6.89 0-12.476-5.586-12.476-12.476 0-6.89 5.586-12.476 12.476-12.476z" fill="#acacac"/><g><path d="m336.391 31.839h-291.209v30.683c0 2.772 2.247 5.019 5.019 5.019h286.189c9.859 0 17.851-7.992 17.851-17.851.001-9.859-7.991-17.851-17.85-17.851z" fill="#5a5a5a"/><path d="m354.244 49.691c0 9.855-7.998 17.853-17.853 17.853h-21.78c9.865 0 17.853-7.998 17.853-17.853 0-4.932-1.999-9.388-5.227-12.626-3.227-3.228-7.693-5.227-12.626-5.227h21.78c4.922 0 9.388 1.999 12.626 5.227 3.228 3.238 5.227 7.694 5.227 12.626z" fill="#444"/></g><path d="m165.042 32.035h35.703v35.312h-35.703z" fill="#f4d902" transform="matrix(0 -1 1 0 133.203 232.584)"/><path d="m173.87 40.863h35.703v17.656h-35.703z" fill="#e3ca00" transform="matrix(0 -1 1 0 142.031 241.412)"/><path d="m144.937 31.839h20.298v35.705h-20.298z" fill="#444"/></g></g></svg>